<svg width="121" height="92" viewBox="0 0 121 92" fill="none" xmlns="http://www.w3.org/2000/svg">
<path d="M10.758 13.014L11.5419 13.6349L10.758 13.014ZM62.922 13.014L63.7059 12.3931L62.922 13.014ZM62.922 78.786L63.7059 79.4069L62.922 78.786ZM10.758 78.786L9.97411 79.4069L10.758 78.786ZM21.594 22.716L20.7601 22.164L20.7547 22.1723L21.594 22.716ZM21.594 69.084L20.7547 69.6278L20.7601 69.636L21.594 69.084ZM51.96 69.084L51.1261 68.532L51.1207 68.5403L51.96 69.084ZM51.96 22.716L51.1207 23.2598L51.1261 23.268L51.96 22.716ZM11.5419 13.6349C18.0754 5.3863 26.4826 1.288 36.84 1.288V-0.712002C25.8614 -0.712002 16.8806 3.67369 9.97411 12.3931L11.5419 13.6349ZM36.84 1.288C47.1974 1.288 55.6046 5.3863 62.1381 13.6349L63.7059 12.3931C56.7994 3.67369 47.8186 -0.712002 36.84 -0.712002V1.288ZM62.1381 13.6349C68.687 21.9029 72.002 32.6296 72.002 45.9H74.002C74.002 32.2904 70.597 21.0931 63.7059 12.3931L62.1381 13.6349ZM72.002 45.9C72.002 59.1704 68.687 69.8971 62.1381 78.1651L63.7059 79.4069C70.597 70.7069 74.002 59.5096 74.002 45.9H72.002ZM62.1381 78.1651C55.6046 86.4137 47.1974 90.512 36.84 90.512V92.512C47.8186 92.512 56.7994 88.1263 63.7059 79.4069L62.1381 78.1651ZM36.84 90.512C26.4826 90.512 18.0754 86.4137 11.5419 78.1651L9.97411 79.4069C16.8806 88.1263 25.8614 92.512 36.84 92.512V90.512ZM11.5419 78.1651C4.99296 69.8971 1.678 59.1704 1.678 45.9H-0.322C-0.322 59.5096 3.08304 70.7069 9.97411 79.4069L11.5419 78.1651ZM1.678 45.9C1.678 32.6296 4.99296 21.9029 11.5419 13.6349L9.97411 12.3931C3.08304 21.0931 -0.322 32.2904 -0.322 45.9H1.678ZM20.7547 22.1723C16.756 28.3442 14.798 36.2783 14.798 45.9H16.798C16.798 36.5377 18.704 29.0158 22.4333 23.2597L20.7547 22.1723ZM14.798 45.9C14.798 55.5217 16.756 63.4558 20.7547 69.6277L22.4333 68.5403C18.704 62.7842 16.798 55.2623 16.798 45.9H14.798ZM20.7601 69.636C24.8608 75.8306 30.2336 79.03 36.84 79.03V77.03C31.0144 77.03 26.2232 74.2654 22.4279 68.532L20.7601 69.636ZM36.84 79.03C43.4483 79.03 48.7819 75.8285 52.7993 69.6277L51.1207 68.5403C47.4101 74.2675 42.6637 77.03 36.84 77.03V79.03ZM52.7939 69.636C56.8804 63.4627 58.882 55.5253 58.882 45.9H56.882C56.882 55.2587 54.9356 62.7773 51.1261 68.532L52.7939 69.636ZM58.882 45.9C58.882 36.2747 56.8804 28.3373 52.7939 22.164L51.1261 23.268C54.9356 29.0227 56.882 36.5413 56.882 45.9H58.882ZM52.7993 22.1723C48.7819 15.9715 43.4483 12.77 36.84 12.77V14.77C42.6637 14.77 47.4101 17.5325 51.1207 23.2597L52.7993 22.1723ZM36.84 12.77C30.2336 12.77 24.8608 15.9694 20.7601 22.164L22.4279 23.268C26.2232 17.5346 31.0144 14.77 36.84 14.77V12.77ZM105.723 19.566H106.723V18.037L105.322 18.6498L105.723 19.566ZM87.5786 27.504H86.5786V29.033L87.9794 28.4202L87.5786 27.504ZM87.5786 12.762L87.1746 11.8472L86.5786 12.1104V12.762H87.5786ZM112.401 1.79999V0.799995H112.19L111.997 0.885227L112.401 1.79999ZM120.339 1.79999H121.339V0.799995H120.339V1.79999ZM120.339 90V91H121.339V90H120.339ZM105.723 90H104.723V91H105.723V90ZM105.322 18.6498L87.1778 26.5878L87.9794 28.4202L106.123 20.4822L105.322 18.6498ZM88.5786 27.504V12.762H86.5786V27.504H88.5786ZM87.9826 13.6768L112.805 2.71476L111.997 0.885227L87.1746 11.8472L87.9826 13.6768ZM112.401 2.79999H120.339V0.799995H112.401V2.79999ZM119.339 1.79999V90H121.339V1.79999H119.339ZM120.339 89H105.723V91H120.339V89ZM106.723 90V19.566H104.723V90H106.723Z" fill="white"/>
</svg>
