<svg width="148" height="92" viewBox="0 0 148 92" fill="none" xmlns="http://www.w3.org/2000/svg">
<path d="M10.758 13.014L11.5419 13.6349L10.758 13.014ZM62.922 13.014L63.7059 12.3931L62.922 13.014ZM62.922 78.786L63.7059 79.4069L62.922 78.786ZM10.758 78.786L9.97411 79.4069L10.758 78.786ZM21.594 22.716L20.7601 22.164L20.7547 22.1723L21.594 22.716ZM21.594 69.084L20.7547 69.6278L20.7601 69.636L21.594 69.084ZM51.96 69.084L51.1261 68.532L51.1207 68.5403L51.96 69.084ZM51.96 22.716L51.1207 23.2598L51.1261 23.268L51.96 22.716ZM11.5419 13.6349C18.0754 5.3863 26.4826 1.288 36.84 1.288V-0.712002C25.8614 -0.712002 16.8806 3.67369 9.97411 12.3931L11.5419 13.6349ZM36.84 1.288C47.1974 1.288 55.6046 5.3863 62.1381 13.6349L63.7059 12.3931C56.7994 3.67369 47.8186 -0.712002 36.84 -0.712002V1.288ZM62.1381 13.6349C68.687 21.9029 72.002 32.6296 72.002 45.9H74.002C74.002 32.2904 70.597 21.0931 63.7059 12.3931L62.1381 13.6349ZM72.002 45.9C72.002 59.1704 68.687 69.8971 62.1381 78.1651L63.7059 79.4069C70.597 70.7069 74.002 59.5096 74.002 45.9H72.002ZM62.1381 78.1651C55.6046 86.4137 47.1974 90.512 36.84 90.512V92.512C47.8186 92.512 56.7994 88.1263 63.7059 79.4069L62.1381 78.1651ZM36.84 90.512C26.4826 90.512 18.0754 86.4137 11.5419 78.1651L9.97411 79.4069C16.8806 88.1263 25.8614 92.512 36.84 92.512V90.512ZM11.5419 78.1651C4.99296 69.8971 1.678 59.1704 1.678 45.9H-0.322C-0.322 59.5096 3.08304 70.7069 9.97411 79.4069L11.5419 78.1651ZM1.678 45.9C1.678 32.6296 4.99296 21.9029 11.5419 13.6349L9.97411 12.3931C3.08304 21.0931 -0.322 32.2904 -0.322 45.9H1.678ZM20.7547 22.1723C16.756 28.3442 14.798 36.2783 14.798 45.9H16.798C16.798 36.5377 18.704 29.0158 22.4333 23.2597L20.7547 22.1723ZM14.798 45.9C14.798 55.5217 16.756 63.4558 20.7547 69.6277L22.4333 68.5403C18.704 62.7842 16.798 55.2623 16.798 45.9H14.798ZM20.7601 69.636C24.8608 75.8306 30.2336 79.03 36.84 79.03V77.03C31.0144 77.03 26.2232 74.2654 22.4279 68.532L20.7601 69.636ZM36.84 79.03C43.4483 79.03 48.7819 75.8285 52.7993 69.6277L51.1207 68.5403C47.4101 74.2675 42.6637 77.03 36.84 77.03V79.03ZM52.7939 69.636C56.8804 63.4627 58.882 55.5253 58.882 45.9H56.882C56.882 55.2587 54.9356 62.7773 51.1261 68.532L52.7939 69.636ZM58.882 45.9C58.882 36.2747 56.8804 28.3373 52.7939 22.164L51.1261 23.268C54.9356 29.0227 56.882 36.5413 56.882 45.9H58.882ZM52.7993 22.1723C48.7819 15.9715 43.4483 12.77 36.84 12.77V14.77C42.6637 14.77 47.4101 17.5325 51.1207 23.2597L52.7993 22.1723ZM36.84 12.77C30.2336 12.77 24.8608 15.9694 20.7601 22.164L22.4279 23.268C26.2232 17.5346 31.0144 14.77 36.84 14.77V12.77ZM147.303 90V91H148.303V90H147.303ZM86.1926 90H85.1926V91H86.1926V90ZM86.1926 82.818L85.4578 82.1397L85.1926 82.427V82.818H86.1926ZM117.945 48.42L117.216 47.7348L117.21 47.7417L117.945 48.42ZM125.127 17.172L124.547 17.9872L124.555 17.9923L124.562 17.9973L125.127 17.172ZM87.8306 24.732H86.8306V27.6353L88.6185 25.3478L87.8306 24.732ZM87.8306 9.738L87.169 8.98816L86.8306 9.28673V9.738H87.8306ZM136.719 6.58799L136.109 7.38064L136.115 7.38508L136.719 6.58799ZM128.151 57.114L128.878 57.8005L128.885 57.7927L128.151 57.114ZM108.999 77.4L108.271 76.7135L106.679 78.4H108.999V77.4ZM147.303 77.4H148.303V76.4H147.303V77.4ZM147.303 89H86.1926V91H147.303V89ZM87.1926 90V82.818H85.1926V90H87.1926ZM86.9274 83.4963L118.679 49.0983L117.21 47.7417L85.4578 82.1397L86.9274 83.4963ZM118.673 49.1051C126.695 40.5764 130.915 32.9419 130.915 26.244H128.915C128.915 32.1461 125.154 39.2956 117.216 47.7349L118.673 49.1051ZM130.915 26.244C130.915 22.0495 129.155 18.7169 125.691 16.3467L124.562 17.9973C127.482 19.9951 128.915 22.7105 128.915 26.244H130.915ZM125.706 16.3568C122.292 13.9312 117.783 12.77 112.275 12.77V14.77C117.519 14.77 121.577 15.8768 124.547 17.9872L125.706 16.3568ZM112.275 12.77C101.432 12.77 92.9726 16.5294 87.0427 24.1162L88.6185 25.3478C94.1126 18.3186 101.949 14.77 112.275 14.77V12.77ZM88.8306 24.732V9.738H86.8306V24.732H88.8306ZM88.4922 10.4878C95.4214 4.37385 104.246 1.288 115.047 1.288V-0.712002C103.839 -0.712002 94.5198 2.50215 87.169 8.98816L88.4922 10.4878ZM115.047 1.288C123.882 1.288 130.871 3.35112 136.109 7.38062L137.328 5.79537C131.647 1.42487 124.188 -0.712002 115.047 -0.712002V1.288ZM136.115 7.38508C141.412 11.3982 144.035 16.6486 144.035 23.22H146.035C146.035 16.0153 143.113 10.1778 137.322 5.7909L136.115 7.38508ZM144.035 23.22C144.035 33.2715 138.598 44.3358 127.416 56.4353L128.885 57.7927C140.215 45.5322 146.035 34.0005 146.035 23.22H144.035ZM127.423 56.4275L108.271 76.7135L109.726 78.0865L128.878 57.8005L127.423 56.4275ZM108.999 78.4H147.303V76.4H108.999V78.4ZM146.303 77.4V90H148.303V77.4H146.303Z" fill="white"/>
</svg>
