<svg width="38" height="34" viewBox="0 0 38 34" fill="none" xmlns="http://www.w3.org/2000/svg">
<circle cx="17" cy="17" r="17" fill="#66ACFF"/>
<path d="M15.8 7.5H18.525L18.225 19.425H16.1L15.8 7.5ZM18.35 24.825C18.05 25.125 17.6583 25.275 17.175 25.275C16.6917 25.275 16.2917 25.125 15.975 24.825C15.675 24.525 15.525 24.1333 15.525 23.65C15.525 23.1667 15.675 22.775 15.975 22.475C16.2917 22.1583 16.6917 22 17.175 22C17.6583 22 18.05 22.1583 18.35 22.475C18.65 22.775 18.8 23.1667 18.8 23.65C18.8 24.1167 18.65 24.5083 18.35 24.825Z" fill="white"/>
</svg>
