<svg width="50" height="52" viewBox="0 0 50 52" fill="none" xmlns="http://www.w3.org/2000/svg">
<circle cx="25" cy="27" r="24.5" fill="white" stroke="#D8DCE4"/>
<path d="M22.88 12H27.24L26.76 31.08H23.36L22.88 12ZM26.96 39.72C26.48 40.2 25.8533 40.44 25.08 40.44C24.3067 40.44 23.6667 40.2 23.16 39.72C22.68 39.24 22.44 38.6133 22.44 37.84C22.44 37.0667 22.68 36.44 23.16 35.96C23.6667 35.4533 24.3067 35.2 25.08 35.2C25.8533 35.2 26.48 35.4533 26.96 35.96C27.44 36.44 27.68 37.0667 27.68 37.84C27.68 38.5867 27.44 39.2133 26.96 39.72Z" fill="#66ACFF"/>
</svg>
