<svg width="21" height="12" viewBox="0 0 21 12" fill="none" xmlns="http://www.w3.org/2000/svg">
<g clip-path="url(#clip0_4_46)">
<path d="M20.4599 12H0.509888C0.571674 11.9286 0.629575 11.8532 0.696024 11.7861C2.7851 9.67905 4.87444 7.57255 6.96404 5.46657C7.19953 5.2291 7.43036 4.98535 7.65613 4.74827C8.5499 5.27031 9.41452 5.77352 10.2764 6.28143C10.4264 6.36975 10.5632 6.37681 10.712 6.28732C10.9611 6.13817 11.2129 5.9945 11.4636 5.8481L13.2589 4.79655C13.3782 4.92882 13.492 5.06895 13.6203 5.19534C15.8329 7.3848 18.0464 9.5736 20.2606 11.7617C20.331 11.8377 20.3975 11.9172 20.4599 12Z" fill="#969696"/>
<path d="M0.989746 -0.00117731H20.0099C19.946 0.052042 19.8792 0.101578 19.8097 0.147194C18.1901 1.09551 16.57 2.04278 14.9496 2.98901C13.5017 3.83475 12.0542 4.68088 10.6071 5.52741C10.5756 5.55028 10.5378 5.56259 10.499 5.56259C10.4603 5.56259 10.4225 5.55028 10.391 5.52741C10.0168 5.30407 9.63985 5.08662 9.26408 4.86681C6.5421 3.27659 3.82026 1.68586 1.09855 0.0945967C1.0594 0.0661806 1.02297 0.0341153 0.989746 -0.00117731Z" fill="#969696"/>
<path d="M20.9996 0.273584V11.485C20.9549 11.4458 20.9075 11.4085 20.8652 11.3673C18.8336 9.35941 16.8033 7.35091 14.7743 5.34175C14.4755 5.04579 14.1957 4.7306 13.9047 4.42169L20.9996 0.273584Z" fill="#969696"/>
<path d="M0 11.4544V0.273584L7.04132 4.38951C6.87034 4.55986 6.71723 4.71098 6.56529 4.86406C4.40886 7.03991 2.25203 9.21562 0.094817 11.3912C0.0654611 11.4155 0.0336851 11.4367 0 11.4544Z" fill="#969696"/>
</g>
<defs>
<clipPath id="clip0_4_46">
<rect width="21" height="12" fill="white"/>
</clipPath>
</defs>
</svg>
