<svg width="203" height="51" viewBox="0 0 203 51" fill="none" xmlns="http://www.w3.org/2000/svg">
<path d="M87.1245 11.8939V39.6048H85.4626V33.1201C84.428 35.355 82.9404 37.1155 81.0013 38.3987C79.0621 39.682 76.78 40.325 74.1564 40.325C71.5142 40.325 69.0807 39.6691 66.8543 38.3573C64.6279 37.0455 62.8589 35.2778 61.5471 33.05C60.2352 30.8237 59.5793 28.3901 59.5793 25.7479C59.5793 23.0872 60.2352 20.6393 61.5471 18.4044C62.8589 16.1694 64.6279 14.3961 66.8543 13.0843C69.0807 11.7725 71.5142 11.1165 74.1564 11.1165C76.78 11.1165 79.0607 11.7582 81.0013 13.0428C82.9404 14.3275 84.428 16.0866 85.4626 18.3215V11.8939H87.1245ZM63.0146 32.2612C64.1964 34.239 65.7769 35.7994 67.7531 36.944C69.7294 38.0901 71.8629 38.6617 74.155 38.6617C76.4642 38.6617 78.4634 38.0886 80.1539 36.944C81.8444 35.7994 83.1333 34.2475 84.0193 32.2884C84.9067 30.3307 85.3497 28.1501 85.3497 25.7479C85.3497 23.3087 84.901 21.1066 84.005 19.1389C83.109 17.1712 81.8158 15.6193 80.1253 14.4832C78.4348 13.3472 76.4442 12.7785 74.1536 12.7785C71.8072 12.7785 69.6451 13.3601 67.6688 14.5247C65.6911 15.6879 64.1264 17.264 62.9718 19.2489C61.8171 21.2352 61.2398 23.4015 61.2398 25.7479C61.2413 28.1143 61.8329 30.285 63.0146 32.2612Z" fill="#66ACFF"/>
<path d="M111.649 39.4247C109.756 38.6587 108.199 37.5727 106.979 36.168C105.777 34.8005 104.868 33.2129 104.25 31.4009C103.631 29.5904 103.321 27.7055 103.321 25.7478C103.321 23.8087 103.629 21.9324 104.25 20.1219C104.868 18.3114 105.779 16.7238 106.979 15.3562C108.161 13.953 109.686 12.8755 111.552 12.1282C113.418 11.3794 115.45 11.0064 117.648 11.0064C119.81 11.0064 121.878 11.5509 123.855 12.6412C125.832 13.7315 127.439 15.2876 128.677 17.3111C129.914 19.3345 130.533 21.6666 130.533 24.3088V26.3037H105.04C105.04 27.727 105.271 29.1402 105.733 30.5435C106.194 31.9482 106.813 33.2043 107.589 34.3117C108.587 35.7522 110.014 36.8796 111.87 37.6927C113.727 38.5058 115.653 38.9116 117.648 38.9116C121.323 38.9116 124.298 38.21 126.57 36.8053V38.4687C125.314 39.116 124.164 39.5904 123.121 39.8962C122.078 40.2006 121.172 40.3906 120.406 40.465C119.638 40.5393 118.775 40.5764 117.815 40.5764C115.599 40.575 113.542 40.192 111.649 39.4247ZM128.872 24.6418C128.872 22.7398 128.434 20.8636 127.556 19.0159C126.679 17.1682 125.381 15.6492 123.662 14.4574C121.945 13.2656 119.876 12.6698 117.455 12.6698C115.516 12.6698 113.737 13.0256 112.12 13.7372C110.504 14.4488 109.16 15.4134 108.088 16.6323C107.238 17.5569 106.517 18.8072 105.926 20.3877C105.334 21.9682 105.038 23.3857 105.038 24.6418H128.872Z" fill="#66ACFF"/>
<path d="M147.437 11.8665H149.101V15.7733C149.914 14.9602 151.05 14.2586 152.509 13.667C153.968 13.0768 155.516 12.6281 157.15 12.3237C158.785 12.0194 160.285 11.8665 161.653 11.8665V13.5284C159.4 13.5284 157.312 13.8056 155.39 14.36C153.468 14.9145 151.94 15.6033 150.804 16.4249C149.668 17.248 149.099 18.0368 149.099 18.7942V39.6331H147.436V11.8665H147.437Z" fill="#66ACFF"/>
<path d="M203 11.8939V39.6048H201.338V33.1201C200.303 35.355 198.816 37.1155 196.877 38.3987C194.937 39.682 192.655 40.325 190.032 40.325C187.389 40.325 184.956 39.6691 182.73 38.3573C180.503 37.0455 178.734 35.2778 177.422 33.05C176.11 30.8237 175.455 28.3901 175.455 25.7479C175.455 23.0872 176.11 20.6393 177.422 18.4044C178.734 16.1694 180.503 14.3961 182.73 13.0843C184.956 11.7725 187.389 11.1165 190.032 11.1165C192.655 11.1165 194.936 11.7582 196.877 13.0428C198.816 14.3275 200.303 16.0866 201.338 18.3215V11.8939H203ZM178.891 32.2612C180.073 34.239 181.654 35.7994 183.63 36.944C185.606 38.0901 187.74 38.6617 190.032 38.6617C192.341 38.6617 194.34 38.0886 196.031 36.944C197.721 35.7994 199.01 34.2475 199.896 32.2884C200.783 30.3307 201.226 28.1501 201.226 25.7479C201.226 23.3087 200.778 21.1066 199.882 19.1389C198.986 17.1712 197.692 15.6193 196.002 14.4832C194.311 13.3472 192.321 12.7785 190.03 12.7785C187.684 12.7785 185.522 13.3601 183.546 14.5247C181.569 15.6879 180.003 17.264 178.848 19.2489C177.694 21.2352 177.117 23.4015 177.117 25.7479C177.118 28.1143 177.708 30.285 178.891 32.2612Z" fill="#66ACFF"/>
<path d="M24.3744 38.4908C22.6253 38.4908 20.8419 37.9978 19.2829 37.0232C16.6521 35.3784 14.7416 32.4076 14.17 29.078C13.9242 27.6391 13.9342 26.2744 14.2028 25.0226C14.25 24.8039 14.2957 24.581 14.3429 24.3552C14.7344 22.4647 15.1788 20.3226 16.4521 18.8765C17.9468 17.1774 20.3203 14.9511 23.607 15.2069C27.148 15.4841 30.5376 17.4975 32.0423 20.214C32.5625 21.1515 32.924 22.2346 33.2155 23.7236C33.7699 26.553 33.7356 29.1138 33.1155 31.3373C32.371 34.0009 30.7276 36.2158 28.6042 37.4133C27.3281 38.1335 25.8634 38.4908 24.3744 38.4908Z" stroke="#66ACFF" stroke-miterlimit="10"/>
<path d="M21.0461 40.9568C17.7222 39.9193 14.6428 37.6658 12.4907 34.6207C11.3247 32.9688 10.5244 31.2568 10.1129 29.5306C9.65132 27.5943 10.5402 25.9839 11.399 24.4263C11.882 23.5517 12.3807 22.6472 12.6565 21.6726C12.878 20.891 13.048 20.0522 13.2124 19.2391C13.8082 16.3025 14.4227 13.2673 17.5608 12.0613C22.4422 10.185 26.1404 10.4351 29.5528 12.8715C30.7632 13.7346 31.8621 14.8735 33.1138 16.5597C35.4945 19.7678 36.9807 22.9901 37.5308 26.1411C38.1896 29.9164 37.4551 33.6675 35.5145 36.4312C32.9752 40.0494 28.3082 42.0414 23.6254 41.5055C22.758 41.4069 21.8934 41.2211 21.0461 40.9568Z" stroke="#66ACFF" stroke-miterlimit="10"/>
<path d="M25.642 49.8555C24.0572 49.8555 22.4668 49.6755 20.9106 49.3025C14.4044 47.7406 8.45986 42.9764 5.00886 36.5574C3.51843 33.7851 2.60674 30.9886 2.29665 28.245C1.97655 25.397 4.19005 23.5922 6.32925 21.8474C7.85683 20.6013 9.43729 19.3138 10.1389 17.6476C10.9606 15.6956 10.892 13.2035 10.8277 10.7956C10.7205 6.84875 10.6091 2.769 14.776 1.72584C22.2039 -0.131844 30.5134 1.65582 35.4491 6.17856C37.1539 7.74044 38.6358 9.70673 40.2534 12.5518C43.33 17.9648 45.019 23.2321 45.2734 28.2078C45.5778 34.1638 43.7344 39.8154 40.2191 43.7152C36.6938 47.6291 31.2093 49.8555 25.642 49.8555Z" stroke="#66ACFF" stroke-miterlimit="10"/>
<path d="M19.4771 47.7949C16.3233 47.7949 13.2996 47.1004 10.6974 45.73C4.99002 42.7234 1.09318 36.0786 1.00172 29.1966C0.917415 22.8119 3.92829 16.1914 9.05549 11.4901C11.2704 9.45947 13.6411 7.95761 16.1047 7.02876C19.0227 5.92702 21.762 6.69581 24.6614 7.50891C25.9175 7.86187 27.215 8.22483 28.5283 8.42346C30.1302 8.66353 31.8364 8.6178 33.4883 8.57207C37.3908 8.46347 41.4306 8.35486 43.5641 12.316C47.0294 18.7507 47.3294 26.8545 44.3086 32.479C43.5569 33.878 41.5206 35.0026 39.5515 36.09C38.2482 36.8102 37.0179 37.489 36.3091 38.1706C35.1688 39.2667 34.2785 40.3241 33.4168 41.3473C31.4691 43.6594 29.7858 45.6571 26.219 46.7603C23.9784 47.4505 21.6949 47.7949 19.4771 47.7949Z" stroke="#66ACFF" stroke-miterlimit="10"/>
<g filter="url(#filter0_f_3_100)">
<circle cx="24.1967" cy="26.9061" r="4.73847" stroke="#66ACFF" stroke-width="2.37552"/>
</g>
<defs>
<filter id="filter0_f_3_100" x="17.1741" y="19.8835" width="14.0453" height="14.0452" filterUnits="userSpaceOnUse" color-interpolation-filters="sRGB">
<feFlood flood-opacity="0" result="BackgroundImageFix"/>
<feBlend mode="normal" in="SourceGraphic" in2="BackgroundImageFix" result="shape"/>
<feGaussianBlur stdDeviation="0.548198" result="effect1_foregroundBlur_3_100"/>
</filter>
</defs>
</svg>
