<svg width="39" height="65" viewBox="0 0 39 65" fill="none" xmlns="http://www.w3.org/2000/svg">
<g clip-path="url(#clip0_611_22)">
<path d="M13.7693 35.106C11.7726 33.9361 10.3668 32.4097 9.55145 30.3659C9.17809 29.43 9.02109 28.4562 9.06914 27.4439C9.31189 22.3141 9.47342 17.1799 9.80689 12.0561C10.0918 7.68031 13.5695 3.76588 18.4366 3.48388C20.9933 3.33557 23.2777 4.03197 25.1945 5.68933C27.1891 7.41424 28.3468 9.63967 28.4131 12.3187C28.5402 17.4527 28.6078 22.5877 28.7037 27.7224C28.7299 29.1184 28.3309 30.3894 27.6217 31.5806C25.9043 34.4665 23.3011 35.9716 20.0454 36.3842C17.7778 36.6718 15.6294 36.2302 13.7693 35.106ZM14.2809 33.6228C14.6286 33.797 14.971 33.9842 15.3254 34.1441C16.6079 34.7233 17.9699 34.8739 19.3559 34.8141C21.637 34.7159 23.6514 33.9551 25.2461 32.2621C26.4472 30.987 27.1018 29.4754 27.0727 27.7038C26.9935 22.8885 26.9069 18.0734 26.8274 13.2586C26.8116 12.3005 26.7338 11.3602 26.4625 10.4298C25.8082 8.18451 24.4515 6.55946 22.2851 5.68925C20.1583 4.83529 18 4.89546 15.8605 5.71661C15.148 5.99015 14.4884 6.36276 13.9372 6.89401C12.4299 8.34753 11.5546 10.1145 11.447 12.2143C11.1862 17.3182 10.9508 22.4229 10.7054 27.5269C10.6347 28.9923 11.0718 30.309 11.9017 31.4947C12.5261 32.3859 13.3156 33.1047 14.2809 33.6228Z" fill="#BEBEBE"/>
<path d="M19.3422 24.3911C19.5879 24.5407 19.701 24.7617 19.6995 25.0476C19.6939 26.1772 19.6987 27.3068 19.6826 28.4364C19.6715 29.216 19.6347 29.9951 19.6028 30.7743C19.5843 31.2336 19.2808 31.5229 18.8293 31.5274C18.4083 31.5317 18.0681 31.2243 18.0684 30.7782C18.0699 29.259 18.0887 27.7393 18.1079 26.2198C18.1128 25.8145 18.1379 25.4086 18.164 25.0039C18.2025 24.3943 18.8119 24.08 19.3422 24.3911Z" fill="#BEBEBE"/>
</g>
<line x1="19.5" y1="36" x2="19.5" y2="65" stroke="#BEBEBE"/>
<defs>
<clipPath id="clip0_611_22">
<rect width="26.1333" height="31.3599" fill="white" transform="translate(22.6321 40.2251) rotate(-150)"/>
</clipPath>
</defs>
</svg>
