<svg width="44" height="39" viewBox="0 0 44 39" fill="none" xmlns="http://www.w3.org/2000/svg">
<rect width="44" height="39" rx="10" fill="#66ACFF"/>
<g clip-path="url(#clip0_639_16)">
<path d="M10 28.4427C10.0453 28.1844 10.0787 27.9235 10.1375 27.6685C10.4168 26.4608 11.1004 25.536 12.099 24.8308C12.7973 24.3375 13.5732 24.0003 14.3529 23.6675C15.1081 23.3451 15.8651 23.0251 16.6084 22.6765C16.9938 22.4958 17.3464 22.2405 17.5458 21.8439C17.6218 21.693 17.6428 21.5037 17.6502 21.3301C17.6706 20.8393 17.6724 20.3475 17.6774 19.8561C17.678 19.8113 17.6632 19.7505 17.6327 19.724C17.2902 19.4261 17.0834 19.0327 16.9258 18.6233C16.7649 18.2052 16.659 17.765 16.5398 17.3318C16.5137 17.2375 16.4898 17.1689 16.3889 17.1406C16.1354 17.0696 15.9644 16.8999 15.8488 16.667C15.5648 16.0966 15.3962 15.4969 15.5095 14.8587C15.5512 14.6243 15.703 14.4108 15.7973 14.1845C15.8248 14.1183 15.852 14.0357 15.8372 13.9704C15.5852 12.864 15.4086 11.749 15.4743 10.6093C15.5326 9.59595 15.7769 8.64139 16.4069 7.82013C16.9849 7.06685 17.7502 6.5939 18.6423 6.31835C19.5945 6.02402 20.5688 5.93068 21.5582 6.05086C22.0901 6.11557 22.6015 6.25603 23.0455 6.5775C23.1647 6.66398 23.2821 6.7591 23.3783 6.87004C23.4777 6.98455 23.5927 7.03793 23.7356 7.0752C24.9667 7.39757 25.7316 8.19497 26.0612 9.42508C26.2919 10.2869 26.2889 11.1606 26.1904 12.0404C26.1144 12.7176 25.9629 13.3775 25.7742 14.0306C25.76 14.0795 25.7668 14.1546 25.7958 14.1931C26.1135 14.6136 26.1771 15.0851 26.0925 15.5914C26.0218 16.0155 25.9094 16.4237 25.6766 16.7905C25.5808 16.9414 25.4589 17.0655 25.2847 17.112C25.1318 17.1528 25.0856 17.2524 25.0599 17.3962C24.9262 18.1465 24.6594 18.8446 24.2328 19.4774C24.2027 19.5221 24.1746 19.5781 24.1311 19.6026C23.9598 19.6977 23.948 19.851 23.9533 20.0213C23.9696 20.5473 23.9669 21.0746 23.9983 21.5997C24.0148 21.8785 24.1911 22.0917 24.3923 22.276C24.421 22.3023 24.4529 22.3246 24.4902 22.3545C24.3068 22.6625 24.1255 22.967 23.9382 23.2813C23.5617 23.0558 23.2981 22.7439 23.1026 22.3688C22.9994 22.1708 22.913 21.9686 22.91 21.7372C22.8997 20.9278 22.8837 20.1185 22.8728 19.3092C22.8725 19.277 22.8941 19.2254 22.9192 19.2143C23.3301 19.0354 23.4771 18.6436 23.6537 18.2818C23.9412 17.6929 24.0953 17.0652 24.1332 16.3987C24.2571 16.3864 24.3692 16.3626 24.4801 16.3679C24.6316 16.3754 24.7389 16.3065 24.783 16.1786C24.8768 15.9042 24.9501 15.623 25.0268 15.343C25.0433 15.2822 25.0415 15.2148 25.0404 15.1507C25.0353 14.8969 24.9362 14.709 24.6949 14.5954C24.5029 14.505 24.5094 14.4916 24.5777 14.2847C24.92 13.2433 25.1424 12.1781 25.1693 11.0789C25.1832 10.5106 25.1164 9.95052 24.9173 9.41106C24.6017 8.5564 23.9716 8.12311 23.0961 8.02082C22.9565 8.00442 22.8606 7.96953 22.7938 7.83444C22.6657 7.5756 22.432 7.43365 22.1759 7.33166C21.6825 7.13485 21.1657 7.0761 20.6398 7.09369C19.9935 7.11516 19.3563 7.19329 18.7408 7.41128C17.5597 7.82997 16.9086 8.69686 16.6593 9.90161C16.4833 10.7533 16.5102 11.6115 16.6474 12.4635C16.756 13.1375 16.9045 13.8049 17.0411 14.5044C17 14.5301 16.929 14.5811 16.8521 14.6207C16.6377 14.7317 16.5534 14.9181 16.5602 15.1471C16.5702 15.4817 16.6297 15.8076 16.7743 16.113C16.8512 16.2758 16.9548 16.3906 17.1586 16.3712C17.2541 16.3623 17.3529 16.3873 17.4428 16.3963C17.497 16.7154 17.5357 17.0252 17.6043 17.3282C17.7203 17.839 17.9223 18.3167 18.2069 18.7572C18.3267 18.9427 18.466 19.1046 18.6748 19.1964C18.7121 19.2128 18.7541 19.2734 18.7538 19.3133C18.7467 20.123 18.742 20.9326 18.7189 21.7416C18.7053 22.2128 18.4346 22.5686 18.1309 22.8942C17.6801 23.377 17.1154 23.6919 16.5188 23.9472C15.6459 24.3208 14.7605 24.6647 13.8924 25.0488C13.1946 25.3577 12.5495 25.7603 12.0271 26.3331C11.5769 26.8267 11.3515 27.4285 11.2184 28.0941C11.2932 28.0941 11.3562 28.0941 11.4192 28.0941C15.2643 28.0941 19.1096 28.095 22.9547 28.0902C23.1053 28.0902 23.1689 28.1331 23.2094 28.2781C23.2928 28.5775 23.3969 28.8709 23.4996 29.1876H10C10 28.9392 10 28.6905 10 28.4421V28.4427Z" fill="white"/>
<path d="M37 26.469C36.9831 30.0829 34.0743 33.009 30.5073 33C26.9272 32.9911 24.0163 30.0346 24.0394 26.4314C24.0628 22.8052 26.9719 19.9185 30.5889 19.9329C34.1053 19.9469 37.0163 22.9146 37 26.469ZM30.4987 31.9059C33.4691 31.9238 35.8893 29.5131 35.9159 26.514C35.9422 23.5388 33.6149 21.0848 30.6404 21.0231C27.5591 20.959 25.148 23.4105 25.1187 26.4144C25.0892 29.4439 27.4913 31.8877 30.4987 31.9059Z" fill="white"/>
<path d="M31.0651 29.7233H29.9778V27.0123H27.2849V25.917H29.9751V23.2036H31.0551V25.9194H33.7498V27.0045H31.0654V29.7236L31.0651 29.7233Z" fill="white"/>
</g>
<defs>
<clipPath id="clip0_639_16">
<rect width="27" height="27" fill="white" transform="translate(10 6)"/>
</clipPath>
</defs>
</svg>
